# xmcd
#
# Track frame offsets:
#	150
#	43335
#	57348
#	70258
#	85991
#	102069
#	122281
#	133482
#	150422
#	167912
#	193288
#	211043
#	230692
#	249083
#	266916
#	281981
#	297585
#	314094
#
# Disc length: 4409 seconds
#
# Revision: 1
# Processed by: cddbd v1.5.2PL0 Copyright (c) Steve Scherf et al.
# Submitted via: audiograbber 1.83.01
#
DISCID=1c113712
DTITLE=Toby Keith - 35 Biggest Hits [Disc 1]
DYEAR=1900
DGENRE=
TTITLE0=Should've Been A Cowboy
TTITLE1=He Ain't Worth Missing
TTITLE2=A Little Less Talk And A Lot More Action
TTITLE3=Wish I Didnt Know Now
TTITLE4=Whose That Man
TTITLE5=Upstairs Downtown
TTITLE6=You Ain't Much Fun
TTITLE7=Big Ol' Truck
TTITLE8=Does That Blue Moon Ever Shine On You
TTITLE9=A Woman's Touch
TTITLE10=Me Too
TTITLE11=We Were in Love
TTITLE12=I'm So Happy I Can't Stop Crying Sting
TTITLE13=Dream Walkin'
TTITLE14=Getcha Some
TTITLE15=How Do You Like Me Now
TTITLE16=Country Comes To Town
TTITLE17=You Shouldn't Kiss Me Like This
EXTD=
EXTT0=
EXTT1=
EXTT2=
EXTT3=
EXTT4=
EXTT5=
EXTT6=
EXTT7=
EXTT8=
EXTT9=
EXTT10=
EXTT11=
EXTT12=
EXTT13=
EXTT14=
EXTT15=
EXTT16=
EXTT17=
PLAYORDER=
